# xmcd
#
# Track frame offsets:
#	150
#	31757
#	54581
#	78792
#	113727
#	147645
#	179951
#	213308
#	248516
#	279464
#	303179
#
# Disc length: 4525 seconds
#
# Revision: 1
# Processed by: cddbd v1.5.2PL0 Copyright (c) Steve Scherf et al.
# Submitted via: audiograbber 1.83.01
#
DISCID=9511ab0b
DTITLE=Cdpool - Club March 10 CD1
DYEAR=2010
DGENRE=Dance
TTITLE0=TV Rock Ft Rudy - In The Air (Axwell Club Mix)
TTITLE1=Chelley - Took The Night (Alvaro Remix)
TTITLE2=Magic Johnson Ft Elese - This Is Your Life (Original Mix)
TTITLE3=Mark Wilkinson Vs Degrees Of Motion - Shine On (Vocal Mix)
TTITLE4=DJ Dervish and Pepper MaShay - Love and Understanding (Jaimy Remix)
TTITLE5=Peter Lutz - The Rain (Kid Massive Audiodamage Dub Mix)
TTITLE6=M'Black - Heartbreak (Felix Baumgartner Remix)
TTITLE7=Tune Brothers Ft Anthony Locks - I Like It 2010 (Starkillers Remix)
TTITLE8=Matt Smallwood - Debut (Original Mix)
TTITLE9=Stylus Robb and Mattias Ft Master Freez - Up In The Club (Original Mix)
TTITLE10=Leisure Groove Ft Angie Brown - I'll Shine (Leisure Groove Original Mi
TTITLE10=x)
EXTD=
EXTT0=
EXTT1=
EXTT2=
EXTT3=
EXTT4=
EXTT5=
EXTT6=
EXTT7=
EXTT8=
EXTT9=
EXTT10=
PLAYORDER=
